# xmcd
#
# Track frame offsets:
#	150
#	17384
#	37768
#	55505
#	72004
#	90540
#	105546
#	124866
#	141510
#	158953
#
# Disc length: 2378 seconds
#
# Revision: 0
# Processed by: cddbd v1.5.2PL0 Copyright (c) Steve Scherf et al.
# Submitted via: Jack! The Knife 17 Overdose
#
DISCID=7509480a
DTITLE=Pooh - Buona Fortuna
DYEAR=1981
DGENRE=Pop
TTITLE0=Buona Fortuna
TTITLE1=Banda Nel Vento
TTITLE2=Lascia Che Sia
TTITLE3=Compleanno Di Maggio
TTITLE4=Gente Della Sera
TTITLE5=Fuori Stagione
TTITLE6=Dove Sto Domani
TTITLE7=Replay
TTITLE8=Fotografie
TTITLE9=Chi Fermerà La Musica
EXTD=Pooh
EXTT0=Facchinetti, D'Orazio
EXTT1=Facchinetti, Negrini
EXTT2=Facchinetti, D'Orazio
EXTT3=Battaglia, Negrini
EXTT4=Facchinetti, Negrini
EXTT5=Facchinetti, Negrini
EXTT6=Facchinetti, Negrini
EXTT7=Canzian, Negrini
EXTT8=Battaglia, Negrini
EXTT9=Facchinetti, Negrini
PLAYORDER=
